M48
; DRILL file {KiCad (6.0.9)} date Thu Feb 16 16:07:39 2023
; FORMAT={-:-/ absolute / inch / decimal}
; #@! TF.CreationDate,2023-02-16T16:07:39+01:00
; #@! TF.GenerationSoftware,Kicad,Pcbnew,(6.0.9)
; #@! TF.FileFunction,Plated,1,2,PTH
FMAT,2
INCH
; #@! TA.AperFunction,Plated,PTH,ViaDrill
T1C0.0236
; #@! TA.AperFunction,Plated,PTH,ComponentDrill
T2C0.0394
; #@! TA.AperFunction,Plated,PTH,ComponentDrill
T3C0.1260
%
G90
G05
T1
X2.5709Y-1.9567
X2.626Y-2.4409
X2.6575Y-2.8425
X2.878Y-2.1299
X2.878Y-2.2205
X2.9252Y-2.5236
X2.937Y-2.126
X3.0039Y-1.8268
X3.0315Y-1.9764
X3.0787Y-2.2441
X3.0945Y-1.9961
X3.1102Y-2.4409
X3.1378Y-2.0866
X3.2402Y-2.9803
X3.2559Y-2.3307
X3.2559Y-2.4094
X3.5118Y-2.1339
X3.6693Y-1.9724
X3.6929Y-2.8346
X3.7795Y-1.7362
X3.8661Y-1.748
X4.126Y-2.815
X4.2677Y-1.8976
T2
X2.3622Y-2.2835
X2.3622Y-2.3819
X3.2972Y-1.5748
X3.3957Y-1.5748
X4.3307Y-2.3031
X4.3307Y-2.4016
T3
X2.3622Y-1.5748
X2.3622Y-3.1496
X4.3307Y-1.5748
X4.3307Y-3.1496
T0
M30
